<svg width="75" height="52" viewBox="0 0 75 52" fill="none" xmlns="http://www.w3.org/2000/svg">
<g clip-path="url(#clip0_12_3678)">
<path opacity="0.2" d="M63.3592 41.4238C52.806 51.534 36.2915 51.4355 36.2915 51.4355C36.2915 51.4355 36.8188 34.9474 47.4045 24.8376C57.9903 14.7277 74.4711 14.8583 74.4711 14.8583C74.4711 14.8583 73.8788 31.3457 63.3592 41.4238Z" fill="white"/>
<path opacity="0.3" d="M55.0123 29.3698C50.8207 43.2841 36.2904 51.4356 36.2904 51.4356C36.2904 51.4356 28.5407 37.0452 32.7322 23.1309C36.9238 9.2166 51.3187 1.2264 51.3187 1.2264C51.3187 1.2264 59.2029 15.488 55.0123 29.3698Z" fill="white"/>
<path opacity="0.5" d="M41.6892 23.2192C44.9884 37.2076 36.291 51.4351 36.291 51.4351C36.291 51.4351 22.291 43.001 18.9917 29.0126C15.6925 15.0241 24.3848 0.959147 24.3848 0.959147C24.3848 0.959147 38.3889 9.26312 41.6892 23.2192Z" fill="#111111"/>
<path opacity="0.8" d="M26.8858 24.6343C36.7858 34.9471 36.2912 51.4355 36.2912 51.4355C36.2912 51.4355 19.7787 51.2719 9.91331 40.8944C0.047894 30.5169 0.50694 14.1257 0.50694 14.1257C0.50694 14.1257 17.0172 14.3544 26.8858 24.6343Z" fill="#111111"/>
</g>
<defs>
<clipPath id="clip0_12_3678">
<rect width="75" height="52" fill="white"/>
</clipPath>
</defs>
</svg>
